<?xml version="1.0" encoding="UTF-8" standalone="no"?>
<!-- Created with Inkscape (http://www.inkscape.org/) -->

<svg
   width="210mm"
   height="297mm"
   viewBox="0 0 210 297"
   version="1.1"
   id="svg5"
   inkscape:version="1.1.1 (1:1.1+202109281949+c3084ef5ed)"
   sodipodi:docname="skeef.svg"
   xmlns:inkscape="http://www.inkscape.org/namespaces/inkscape"
   xmlns:sodipodi="http://sodipodi.sourceforge.net/DTD/sodipodi-0.dtd"
   xmlns="http://www.w3.org/2000/svg"
   xmlns:svg="http://www.w3.org/2000/svg">
  <sodipodi:namedview
     id="namedview7"
     pagecolor="#ffffff"
     bordercolor="#666666"
     borderopacity="1.0"
     inkscape:pageshadow="2"
     inkscape:pageopacity="0.0"
     inkscape:pagecheckerboard="0"
     inkscape:document-units="mm"
     showgrid="false"
     inkscape:zoom="0.64052329"
     inkscape:cx="89.77035"
     inkscape:cy="561.25984"
     inkscape:window-width="1920"
     inkscape:window-height="1049"
     inkscape:window-x="1080"
     inkscape:window-y="426"
     inkscape:window-maximized="1"
     inkscape:current-layer="layer1" />
  <defs
     id="defs2" />
  <g
     inkscape:label="Layer 1"
     inkscape:groupmode="layer"
     id="layer1">
    <path
       d="m 206.25546,76.622554 c -0.32037,-1.69668 -1.3019,-3.19631 -2.72811,-4.170026 -1.42607,-0.973071 -3.18099,-1.340079 -4.87769,-1.019711 l -58.92336,11.125848 -2.02947,-10.748235 7.42141,-1.401303 c 1.69669,-0.320367 3.19707,-1.301369 4.17002,-2.728091 0.97308,-1.426087 1.34022,-3.180364 1.01973,-4.877689 -0.32036,-1.696685 -1.3019,-3.196308 -2.7281,-4.170025 -1.42609,-0.973077 -3.181,-1.340082 -4.87769,-1.019715 l -13.81915,2.609318 c -10.04447,1.896586 -2.05565,18.940544 -1.95226,24.751774 l -17.01805,3.21333 -10.195674,-53.99709 c -0.24718,-2.371765 0.406314,-4.750597 1.830924,-6.662802 1.4245,-1.91285 3.51654,-3.220246 5.86004,-3.662744 2.34353,-0.442502 4.76762,0.01216 6.79217,1.273766 2.02379,1.261083 3.49959,3.237864 4.13435,5.536446 0.32049,1.697328 1.30137,3.197073 2.72811,4.170026 1.42621,0.973715 3.18099,1.340081 4.87769,1.019712 1.69669,-0.320367 3.19707,-1.301371 4.17003,-2.728094 0.97304,-1.426076 1.34018,-3.180352 1.01969,-4.87768 -1.37242,-5.598779 -4.83983,-10.458767 -9.68747,-13.579249 -4.8475,-3.119848 -10.70726,-4.262893 -16.37184,-3.193312 -5.665198,1.069696 -10.704051,4.270605 -14.08084,8.943354 -3.376039,4.67327 -4.831833,10.462852 -4.068364,16.176612 l 10.195673,53.99709 -17.018036,3.213327 C 78.064409,88.304585 79.316082,69.317072 69.25594,71.481652 l -13.819179,2.609323 c -1.696689,0.320367 -3.196956,1.302011 -4.170004,2.72809 -0.973609,1.426848 -1.340089,3.181001 -1.019723,4.877686 0.320487,1.697325 1.301365,3.197071 2.728103,4.170027 1.426175,0.97372 3.180972,1.340084 4.87766,1.019717 l 7.421406,-1.401302 2.02947,10.748238 -58.9233637,11.125839 c -1.6966894,0.32037 -3.1969543,1.30202 -4.1700351,2.7281 -0.973578,1.42684 -1.3400562,3.181 -1.0196908,4.87768 3.9016111,20.54422 13.9434866,39.42152 28.8009606,54.13689 14.857475,14.71538 33.830126,24.57686 54.410894,28.28005 8.491828,31.98968 4.008015,91.40888 53.486002,84.6506 48.79161,-11.79688 22.73393,-65.58179 18.93662,-98.32536 17.81349,-10.95276 31.88397,-27.0534 40.3521,-46.1731 8.46875,-19.11981 10.9371,-40.359269 7.0783,-60.911576 z M 156.46683,241.39991 c 5.77433,30.58129 -40.86532,39.38774 -46.83159,8.8427 l -9.66415,-51.18209 c 16.09072,0.8061 32.14269,-2.22481 46.83159,-8.84269 z M 121.47824,184.53072 C 99.0637,188.72457 75.893117,184.28922 56.611587,172.11468 37.330087,159.94013 23.363864,140.92659 17.514004,118.88637 L 194.34808,85.49675 c 2.58894,22.65594 -3.48199,45.45287 -16.99669,63.81997 -13.51466,18.36708 -33.4733,30.94605 -55.87315,35.214 z"
       fill="#000000"
       id="path824"
       style="fill:#ff9e00;fill-opacity:1;stroke-width:6.51079"
       inkscape:export-filename="/home/john/stickers/skeef.png"
       inkscape:export-xdpi="96"
       inkscape:export-ydpi="96" />
  </g>
</svg>
